<svg width="100" height="100" viewBox="0 0 100 100" fill="none" xmlns="http://www.w3.org/2000/svg">
<path fill-rule="evenodd" clip-rule="evenodd" d="M50 100C77.6142 100 100 77.6142 100 50C100 22.3858 77.6142 0 50 0C22.3858 0 0 22.3858 0 50C0 77.6142 22.3858 100 50 100ZM49 42C42.9631 39.1556 34.5113 28.3467 49 10C63.4888 28.3467 55.037 39.1556 49 42ZM53.1853 60.1132C49.8379 54.3317 49.0407 40.6265 71.4166 33.8119C72.8873 57.1562 59.7739 61.219 53.1853 60.1132ZM53.1853 84.6483C49.8379 78.8667 49.0407 65.1615 71.4166 58.3469C72.8873 81.6912 59.7739 85.7541 53.1853 84.6483ZM45.8147 60.1132C49.1622 54.3317 49.9593 40.6265 27.5835 33.8119C26.1128 57.1562 39.2261 61.219 45.8147 60.1132ZM45.8147 84.6483C49.1622 78.8667 49.9593 65.1615 27.5835 58.3469C26.1128 81.6912 39.2261 85.7541 45.8147 84.6483Z" fill="#2DAAE1"/>
</svg>
