<svg width="100" height="100" viewBox="0 0 100 100" fill="none" xmlns="http://www.w3.org/2000/svg">
<path fill-rule="evenodd" clip-rule="evenodd" d="M50 100C77.6142 100 100 77.6142 100 50C100 22.3858 77.6142 0 50 0C22.3858 0 0 22.3858 0 50C0 77.6142 22.3858 100 50 100ZM34 69.5C30.1667 63.8333 25.784 49.8838 39 39C42.549 36.0773 45.3135 34.8107 48.2762 33.4534C52.4092 31.5598 56.9279 29.4896 64.4999 22.5C64.9568 22.0783 69.4999 39 69.4999 42C69.4999 42.2953 69.5217 42.7433 69.5493 43.3085C69.7081 46.5708 70.0569 53.7383 67.4999 58C64.4999 63 60.3243 67.9199 54.5 70C48.5337 72.1308 45.11 72.0822 40.8234 72.0214C40.0807 72.0109 39.3121 72 38.5 72C38.5 72 35.5 79.5 35 79.5C34.5 79.5 33.5 79 33.5 79C33.3333 76.5 35.4 72 39 68C39.8783 67.0241 40.947 66.0482 42.1542 64.946C47.1321 60.4006 54.4638 53.7061 60.5 36C60.1104 36.896 59.7445 37.7537 59.3913 38.5817C55.2114 48.3807 52.8106 54.0089 34 69.5Z" fill="#82B422"/>
</svg>
