<svg width="100" height="100" viewBox="0 0 100 100" fill="none" xmlns="http://www.w3.org/2000/svg">
<circle r="7.5" transform="matrix(-1 0 0 1 68.5 14.5)" fill="white"/>
<path d="M61.4664 28.1298L50.2142 61.4882" stroke="white" stroke-width="6" stroke-linecap="round"/>
<path d="M54 59L66.8214 68.6846" stroke="white" stroke-width="6" stroke-linecap="round"/>
<path d="M76 90L67.1456 68.8788" stroke="white" stroke-width="6" stroke-linecap="round"/>
<path d="M48.3864 72.9973L50.2144 61.4882" stroke="white" stroke-width="6" stroke-linecap="round"/>
<path d="M36 90L47.665 73.8715" stroke="white" stroke-width="6" stroke-linecap="round"/>
<path d="M61.3928 27.9525L49.2143 39.5775" stroke="white" stroke-width="6" stroke-linecap="round"/>
<path d="M57.4217 18.7544L33.6789 11.0422C32.1031 10.5304 30.4107 11.3929 29.8989 12.9687L18.4467 48.2255C17.9348 49.8013 18.7973 51.4937 20.3731 52.0056L44.1159 59.7178L57.4217 18.7544Z" fill="#E6007E" stroke="#071B2C" stroke-width="4"/>
<path d="M57.5846 20.6374C67.0841 24.3679 82.7218 26.9048 45.8928 54.9588" stroke="#071B2C" stroke-width="4"/>
<path d="M61.6447 28.1568L64.7143 46.7739" stroke="white" stroke-width="6" stroke-linecap="round"/>
<path d="M75.7857 53.9704L65.2678 47.3275" stroke="white" stroke-width="6" stroke-linecap="round"/>
</svg>
