<svg width="100" height="100" viewBox="0 0 100 100" fill="none" xmlns="http://www.w3.org/2000/svg">
<circle cx="31.5" cy="14.5" r="7.5" fill="white"/>
<path d="M38.5336 28.1298L49.7858 61.4882" stroke="white" stroke-width="6" stroke-linecap="round"/>
<path d="M46 59L33.1786 68.6846" stroke="white" stroke-width="6" stroke-linecap="round"/>
<path d="M24 90L32.8544 68.8788" stroke="white" stroke-width="6" stroke-linecap="round"/>
<path d="M51.6136 72.9973L49.7856 61.4882" stroke="white" stroke-width="6" stroke-linecap="round"/>
<path d="M64 90L52.335 73.8715" stroke="white" stroke-width="6" stroke-linecap="round"/>
<path d="M38.3553 28.1568L35.2857 46.7739" stroke="white" stroke-width="6" stroke-linecap="round"/>
<path d="M38.6072 27.9525L50.7857 39.5775" stroke="white" stroke-width="6" stroke-linecap="round"/>
<path d="M24.2143 53.9704L34.7322 47.3275" stroke="white" stroke-width="6" stroke-linecap="round"/>
<path d="M40.0582 17.4701L65.7032 9.14006C68.3295 8.28697 71.1502 9.72447 72.0033 12.3508L83.4555 47.6076C84.3086 50.234 82.8711 53.0546 80.2447 53.9077L54.5998 62.2378L40.0582 17.4701Z" fill="white"/>
<path d="M42.4154 20.6374C32.9159 24.3679 17.2782 26.9048 54.1072 54.9588" stroke="white" stroke-width="4"/>
</svg>
