<svg xmlns="http://www.w3.org/2000/svg" xmlns:xlink="http://www.w3.org/1999/xlink" version="1.1" width="20" height="20" viewBox="0 0 1080 1080" xml:space="preserve">
<defs>
</defs>
<g transform="matrix(1 0 0 1 540 540)" id="79c04955-b330-4309-a1df-29b669d7986f"  >
</g>
<g transform="matrix(1 0 0 1 540 540)" id="522bfe3c-12b8-4f37-8cac-2ea65615ea18"  >
<rect style="stroke: none; stroke-width: 1; stroke-dasharray: none; stroke-linecap: butt; stroke-dashoffset: 0; stroke-linejoin: miter; stroke-miterlimit: 4; fill: rgb(255,204,0); fill-rule: nonzero; opacity: 1; visibility: hidden;" vector-effect="non-scaling-stroke"  x="-540" y="-540" rx="0" ry="0" width="1080" height="1080" />
</g>
<g transform="matrix(29.93 0 0 29.93 540 540)"  >
<path style="stroke: none; stroke-width: 1; stroke-dasharray: none; stroke-linecap: butt; stroke-dashoffset: 0; stroke-linejoin: miter; stroke-miterlimit: 4; fill: rgb(255,204,0); fill-rule: nonzero; opacity: 1;"  transform=" translate(-18.05, -18.05)" d="M 36.042 13.909 C 35.919000000000004 13.532 35.586 13.263 35.192 13.221 L 23.643 12.049 L 18.96 1.43 C 18.8 1.0699999999999998 18.441000000000003 0.834 18.045 0.834 C 17.649 0.834 17.290000000000003 1.068 17.130000000000003 1.432 L 12.446 12.05 L 0.899 13.221 C 0.505 13.261 0.17100000000000004 13.533 0.049000000000000044 13.909 C -0.07399999999999995 14.286000000000001 0.03800000000000005 14.700000000000001 0.334 14.964 L 8.985999999999999 22.702 L 6.533 34.045 C 6.45 34.432 6.602 34.832 6.923 35.065000000000005 C 7.098 35.19200000000001 7.304 35.25600000000001 7.511 35.25600000000001 C 7.684 35.25600000000001 7.8580000000000005 35.211000000000006 8.014 35.11900000000001 L 18.046 29.279000000000007 L 28.076 35.11900000000001 C 28.418 35.31600000000001 28.846 35.297000000000004 29.167 35.06000000000001 C 29.487000000000002 34.83100000000001 29.641000000000002 34.42700000000001 29.558 34.040000000000006 L 27.105 22.696000000000005 L 35.758 14.959000000000005 C 36.052 14.699 36.165 14.285 36.042 13.909 z M 25.336 21.598 C 25.067999999999998 21.837999999999997 24.948999999999998 22.203 25.025 22.555 L 27.122 32.25 L 18.548000000000002 27.259999999999998 C 18.237000000000002 27.078 17.853 27.078 17.542 27.259999999999998 L 8.966000000000001 32.25 L 11.063 22.555 C 11.139000000000001 22.203 11.020000000000001 21.838 10.752 21.598 L 3.3560000000000008 14.985 L 13.225999999999999 13.982999999999999 C 13.584 13.947999999999999 13.893999999999998 13.719 14.04 13.390999999999998 L 18.043999999999997 4.313999999999998 L 22.046999999999997 13.390999999999998 C 22.192999999999998 13.718999999999998 22.502999999999997 13.947999999999999 22.860999999999997 13.982999999999999 L 32.730999999999995 14.985 L 25.336 21.598 z" stroke-linecap="round" />
</g>
<g transform="matrix(14.01 0 0 14.06 538.19 540)" id="597692fe-7c19-4e40-bccc-e263f46c96d6"  >
<polygon style="stroke: rgb(0,0,0); stroke-width: 0; stroke-dasharray: none; stroke-linecap: butt; stroke-dashoffset: 0; stroke-linejoin: miter; stroke-miterlimit: 4; fill: rgb(255,204,0); fill-rule: nonzero; opacity: 1;" vector-effect="non-scaling-stroke"  points="0,-35.47 11.56,-12.17 37.29,-8.4 18.68,9.8 23.06,35.47 0,23.42 -23.06,35.47 -18.74,9.8 -37.29,-8.4 -11.56,-12.17 " />
</g>
</svg>