<svg width="100" height="100" viewBox="0 0 100 100" fill="none" xmlns="http://www.w3.org/2000/svg">
<path fill-rule="evenodd" clip-rule="evenodd" d="M50 100C77.6142 100 100 77.6142 100 50C100 22.3858 77.6142 0 50 0C22.3858 0 0 22.3858 0 50C0 77.6142 22.3858 100 50 100ZM60 13.5C59.9401 14.3538 59.8909 15.1015 59.8465 15.7768L59.8465 15.7769C59.7472 17.2887 59.6716 18.4377 59.5526 19.6015C53.2784 18.3204 48.4222 19.9137 44 32.5C41.1113 40.7217 39.6743 47.3634 38.4556 52.9956L38.4556 52.9956C36.9322 60.0366 35.7502 65.4998 32.5 70.5C30.1216 74.1591 28.2788 76.3454 26.996 77.8672C24.773 80.5046 24.2318 81.1466 25.5 84C27.5 88.5 38.3393 79.4055 51 66C59.5 57 68.8333 43.1667 70 35C70.0444 34.7037 70.1047 34.3691 70.1706 34.0034L70.1707 34.003C70.8458 30.255 72.1107 23.2332 63 20.5L62.9148 20.4745C63.2051 19.9374 63.5616 19.2891 64 18.5C67 13.1 69 9.5 66.5 9.99999C65.5217 10.2853 64.5388 10.0656 63.6425 9.86517C61.79 9.45102 60.3074 9.11954 60 13.5ZM55.34 23.1606C55.5319 22.2202 57.1826 21.7318 59.2599 21.9062C59.1861 22.3969 59.1005 22.9219 59 23.5L61.5 24.375C61.5742 24.0041 61.5906 23.7748 61.6043 23.5829C61.6272 23.2634 61.6426 23.0476 61.9046 22.4554C63.843 23.1113 65.1349 24.1916 64.9454 25.1202C64.7149 26.2502 62.3778 26.7277 59.7253 26.1865C57.0728 25.6454 55.1095 24.2907 55.34 23.1606Z" fill="#E7302A"/>
</svg>
