<svg width="100" height="100" viewBox="0 0 100 100" fill="none" xmlns="http://www.w3.org/2000/svg">
<path fill-rule="evenodd" clip-rule="evenodd" d="M50 100C77.6142 100 100 77.6142 100 50C100 22.3858 77.6142 0 50 0C22.3858 0 0 22.3858 0 50C0 77.6142 22.3858 100 50 100ZM82.8194 26C46.7865 29.9468 38 64.5 41.3269 77.8723C42.187 76.55 43.0101 75.2741 43.8073 74.0384L43.8076 74.0379C51.9762 61.3757 57.4228 52.9329 72 42C58.5552 52.9935 52.7426 61.9542 44.8408 74.1356L44.8404 74.1363C43.9266 75.5451 42.9848 76.9969 42 78.5C54.011 78.5 69.0614 72.4596 77.3598 62.0851C85.6583 51.7106 84.4572 33.7057 82.8194 26ZM45.9967 48.2927C39.6558 40.2587 29.8789 33.4634 16.0813 32C14.5813 38.8333 13.4813 54.8 21.0813 64C25.5873 69.4547 32.1323 73.7142 39.007 76.2782C38.7639 73.5459 38.7718 70.6342 39.0672 67.63C39.1129 67.1653 39.1649 66.7041 39.223 66.2467C33.883 60.8035 29.4814 55.1473 24.5813 46.5C30.0213 54.6601 34.4256 60.0087 39.404 64.9608C40.4596 58.1284 42.8841 52.2349 45.9967 48.2927Z" fill="#587A41"/>
</svg>
