<svg width="100" height="100" viewBox="0 0 100 100" fill="none" xmlns="http://www.w3.org/2000/svg">
<circle r="9" transform="matrix(-1 0 0 1 72 9)" fill="white"/>
<path d="M63.9819 24.8505L50.9481 63.4907" stroke="white" stroke-width="6" stroke-linecap="round"/>
<path d="M55.3333 60.6085L70.1848 71.8265" stroke="white" stroke-width="6" stroke-linecap="round"/>
<path d="M80.8167 96.5167L70.5603 72.0514" stroke="white" stroke-width="6" stroke-linecap="round"/>
<path d="M48.8309 76.822L50.9484 63.4906" stroke="white" stroke-width="6" stroke-linecap="round"/>
<path d="M34.4833 96.5167L47.9954 77.8346" stroke="white" stroke-width="6" stroke-linecap="round"/>
<path d="M63.8967 24.6452L49.7899 38.1108" stroke="white" stroke-width="6" stroke-linecap="round"/>
<path d="M59.6958 13.7874L31.1396 4.51167C29.5638 3.99982 27.8714 4.86232 27.3596 6.43812L13.605 48.7831C13.0931 50.3589 13.9556 52.0513 15.5314 52.5632L44.0876 61.8388L59.6958 13.7874Z" fill="#E6007E" stroke="#071B2C" stroke-width="4"/>
<path d="M59.4853 16.1718C70.4889 20.493 88.6026 23.4315 45.9424 55.9274" stroke="#071B2C" stroke-width="4"/>
<path d="M64.1885 24.8818L67.7441 46.4466" stroke="white" stroke-width="6" stroke-linecap="round"/>
<path d="M80.5683 54.7825L68.3851 47.0878" stroke="white" stroke-width="6" stroke-linecap="round"/>
</svg>
