<svg width="195" height="130" viewBox="0 0 195 130" fill="none" xmlns="http://www.w3.org/2000/svg">
<path d="M194.341 54.032C192.737 47.5309 187.994 34.3906 174.507 22.7809C172.983 21.5162 171.383 20.3457 169.716 19.2761C162.29 14.4344 154.211 10.668 145.721 8.08974C141.289 6.7272 136.857 5.54471 132.426 4.54226L75.1883 2C66.2945 3.26852 57.5241 5.28306 48.9708 8.02211C41.2426 10.4677 33.8574 13.8807 26.9925 18.1791C24.7212 19.5621 22.5489 21.1 20.4909 22.7818C7.10166 34.3035 2.33036 47.3391 0.6931 53.8884C-0.149415 57.0851 -0.224941 60.4344 0.472628 63.6655C3.73598 77.8564 19.4044 78 19.4044 78L97.5034 58.1233L175.595 78C175.595 78 191.258 77.8564 194.521 63.6655C195.216 60.4842 195.154 57.1853 194.341 54.032V54.032Z" fill="#FF7B94"/>
<path d="M185.364 95.8673C184.833 92.7262 183.782 89.6964 182.256 86.9031C182.256 86.9031 177.36 81.9156 174.525 79.5228C137.353 48.1591 57.5455 48.1591 20.3727 79.5228C18.0335 81.4968 13.7193 85.2446 13.7193 85.2446C11.6659 88.4765 10.2772 92.0883 9.63489 95.8673C8.92122 99.9895 8.80852 104.194 9.30032 108.349C10.0813 114.35 13.0147 119.86 17.5511 123.846C22.0874 127.832 27.9153 130.02 33.9429 130H161.057C167.085 130.02 172.913 127.832 177.449 123.846C181.985 119.86 184.918 114.35 185.699 108.349C186.192 104.194 186.079 99.9894 185.364 95.8673V95.8673Z" fill="#E9EBFC"/>
<path d="M39.0936 55.117C38.8892 54.6826 38.5994 54.292 38.2409 53.9674C37.8824 53.6428 37.4621 53.3905 37.004 53.225C36.079 52.8908 35.0563 52.9302 34.1609 53.3347C33.2655 53.7391 32.5708 54.4755 32.2297 55.3817C31.8885 56.288 31.9288 57.2899 32.3416 58.1671C34.8293 63.3304 38.241 68.0154 42.4153 72L51 69.8513C45.9665 65.8641 41.8998 60.8315 39.0936 55.117Z" fill="#D35363"/>
<path d="M194.855 56.7892C183.005 49.6806 170.456 43.8238 157.408 39.3124C159.016 31.1508 161.247 23.1259 164.08 15.3087C161.87 14.0679 159.604 12.9319 157.3 11.8783C154.285 20.0339 151.905 28.4132 150.183 36.9403C142.259 34.499 134.205 32.5101 126.058 30.9833C129.109 13.8405 132.4 3.94041 132.423 3.8749C123.431 1.80782 114.282 0.511541 105.073 0L90.6536 24.3733L90.1689 27.6175C71.472 27.8005 52.968 31.4419 35.5809 38.3598C35.8516 27.2479 40.5188 16.3802 44.6212 8.90264C40.9844 10.2598 37.4324 11.8366 33.9846 13.6244C30.537 21.6474 27.722 31.4231 28.1648 41.4421C18.4172 45.7683 9.04493 50.9039 0.145221 56.7958C-0.126988 59.0605 -0.0159575 61.3553 0.473605 63.5827C0.615935 64.204 0.788035 64.7898 0.974088 65.3606C17.9049 53.7097 50.4056 35.5657 89.0628 35.1006L85.1715 61.1545L97.5013 57.9851L121.942 63.899C122.652 54.4704 123.683 45.9515 124.826 38.4805C132.96 40.0192 141 42.0243 148.906 44.4861C147.6 53.2653 147.353 62.171 148.172 71.0097L155.915 73C154.861 64.3261 154.949 55.5503 156.175 46.8994C169.449 51.5411 182.17 57.6489 194.106 65.1108C194.259 64.6176 194.402 64.1133 194.522 63.5827C195.015 61.3535 195.128 59.0563 194.855 56.7892Z" fill="#D35363"/>
<path d="M132.101 68.6316C156.52 73.2557 173.954 81.7345 183 86.9692C181.216 83.7321 178.841 80.8531 175.998 78.4792C162.348 67.0787 142.804 59.833 121.658 56.7338C118.791 56.3138 115.895 55.97 112.97 55.7023L112.763 55.6828C109.896 55.4239 107.013 55.238 104.114 55.1252L103.87 55.115C102.449 55.0618 101.028 55.0264 99.6047 55.0091H99.2887C96.4617 54.98 93.6364 55.0209 90.8131 55.1318L90.2522 55.155C62.8713 56.3213 36.2505 64.0938 19.0225 78.4802C16.6758 80.4385 14.6447 82.7426 13 85.3123C21.6421 80.0005 45.3469 67.8807 84.5129 65.7043L83.3415 73.4555L84.8009 124.566L85.704 130H117.074C117.082 128.572 117.084 127.119 117.074 125.617C116.949 109.818 117.631 94.0227 119.117 78.2924C119.262 76.7813 119.723 75.3169 120.471 73.9933C121.218 72.6697 122.236 71.5161 123.459 70.6064C124.681 69.6968 126.082 69.0512 127.57 68.7111C129.058 68.371 130.602 68.3439 132.101 68.6316Z" fill="#ACB9D4"/>
<path d="M32.4999 93.9999C32.271 94.0015 32.0425 93.978 31.8174 93.9299C31.5937 93.873 31.3743 93.7961 31.1612 93.6999C30.9511 93.5964 30.7491 93.4726 30.5575 93.3298C30.3662 93.183 30.1878 93.0156 30.0246 92.8297C29.8624 92.6448 29.7184 92.4402 29.595 92.2196C29.465 92.004 29.3564 91.7725 29.2712 91.5294C29.1835 91.2907 29.1161 91.0428 29.07 90.7893C28.9767 90.2712 28.9767 89.7369 29.07 89.2189C29.1174 88.9625 29.1847 88.7114 29.2712 88.4688C29.3582 88.2267 29.4667 87.9954 29.595 87.7786C29.7184 87.5611 29.8625 87.3598 30.0246 87.1785C30.1855 86.9898 30.3642 86.822 30.5575 86.6784C30.7471 86.5318 30.9494 86.4077 31.1612 86.3083C31.8006 86.0024 32.5053 85.9218 33.185 86.0769C33.8647 86.2319 34.4884 86.6155 34.9761 87.1785C35.1404 87.3599 35.2871 87.5611 35.4136 87.7786C35.5385 87.9977 35.6468 88.2286 35.7373 88.4688C35.8214 88.7117 35.8861 88.9627 35.9307 89.2189C35.9792 89.4752 36.0024 89.7369 35.9998 89.9991C36.0024 90.2646 35.9792 90.5296 35.9307 90.7893C35.8873 91.0425 35.8225 91.2904 35.7373 91.5294C35.6487 91.7706 35.5403 92.0017 35.4136 92.2196C35.2872 92.4402 35.1405 92.6447 34.9761 92.8297C34.6512 93.2017 34.2652 93.4966 33.8402 93.6974C33.4152 93.8982 32.9597 94.0011 32.4999 93.9999V93.9999Z" fill="#ACB9D4"/>
<path d="M41.005 108C40.74 107.999 40.4758 107.972 40.216 107.92C39.9598 107.866 39.7091 107.789 39.4669 107.69C39.2252 107.591 38.9943 107.467 38.7778 107.32C38.5629 107.176 38.3622 107.012 38.1785 106.83C37.9903 106.646 37.8228 106.441 37.6792 106.221C37.5327 106.004 37.4089 105.773 37.3096 105.531C37.1076 105.046 37.0024 104.526 37 104.001C37.0014 103.739 37.0281 103.478 37.0799 103.221C37.1311 102.964 37.2081 102.713 37.3096 102.472C37.4068 102.229 37.5307 101.997 37.6792 101.782C37.8203 101.559 37.988 101.354 38.1785 101.172C38.3647 100.99 38.565 100.823 38.7778 100.672C38.9965 100.53 39.2271 100.406 39.4669 100.302C39.7093 100.206 39.9601 100.133 40.216 100.082C40.7329 99.9725 41.2671 99.9725 41.784 100.082C42.037 100.131 42.2846 100.205 42.5231 100.302C42.765 100.402 42.9959 100.525 43.2122 100.672C43.4304 100.82 43.6344 100.987 43.8215 101.172C44.0092 101.357 44.1766 101.561 44.3209 101.782C44.4655 102 44.5892 102.231 44.6904 102.472C44.7928 102.713 44.8698 102.964 44.9201 103.221C44.9719 103.478 44.9986 103.739 45 104.001C44.9981 104.263 44.9714 104.524 44.9201 104.781C44.8684 105.038 44.7915 105.289 44.6904 105.531C44.5871 105.771 44.4635 106.002 44.3209 106.221C44.1741 106.439 44.0069 106.643 43.8215 106.83C43.6368 107.015 43.4325 107.18 43.2122 107.32C42.9982 107.471 42.7668 107.595 42.5231 107.69C42.2848 107.791 42.0373 107.868 41.784 107.92C41.5275 107.971 41.2666 107.998 41.005 108V108Z" fill="#ACB9D4"/>
<path d="M24.9921 109C24.731 109.001 24.4703 108.981 24.2136 108.939C23.9569 108.894 23.7061 108.827 23.4651 108.737C23.2255 108.647 22.9951 108.539 22.7765 108.414C22.5582 108.285 22.3544 108.139 22.1677 107.976C21.4238 107.32 21.0043 106.434 21 105.509C21.0014 105.277 21.0281 105.045 21.0798 104.817C21.132 104.596 21.2089 104.379 21.3094 104.17C21.4049 103.958 21.5254 103.756 21.6687 103.566C21.8159 103.375 21.983 103.197 22.1677 103.032C22.3544 102.87 22.5582 102.724 22.7765 102.595C22.9951 102.47 23.2255 102.362 23.4651 102.271C23.7061 102.182 23.9569 102.114 24.2136 102.07C24.761 101.973 25.3257 101.977 25.8711 102.083C26.4164 102.189 26.9304 102.394 27.3797 102.685C27.829 102.976 28.2036 103.346 28.4794 103.772C28.7552 104.198 28.926 104.67 28.9808 105.157C29.0355 105.644 28.973 106.136 28.7973 106.601C28.6215 107.066 28.3365 107.493 27.9605 107.856C27.5846 108.218 27.1261 108.507 26.6148 108.704C26.1035 108.901 25.5507 109.002 24.9921 109V109Z" fill="#ACB9D4"/>
<path d="M127 3.15426C110.07 -0.333784 92.6834 -0.933951 75.5581 1.37857L74.5143 1.53091C67.532 25.2064 63.0105 98.804 65.8712 130H116.689C113.51 111.623 113.563 91.8078 115.53 61.5136C117.152 36.5362 121.87 14.7925 127 3.15426Z" fill="#667387"/>
<path d="M65.8109 130H116.679C113.497 111.705 113.55 91.9793 115.519 61.8211C117.143 36.9559 121.865 15.3098 127 3.72383C125.711 3.46519 124.422 3.22701 123.133 3L109.964 4.5593C108.324 4.75188 106.785 5.45522 105.562 6.57099C104.338 7.68677 103.492 9.15923 103.141 10.7826C99.5464 27.3991 96.6033 53.8143 96.1623 91.4248C96.1049 95.9927 94.5476 100.413 91.7329 103.998C88.9183 107.582 85.0043 110.129 80.601 111.242C75.493 112.498 70.2582 113.159 65 113.21C65.111 119.567 65.3745 125.275 65.8109 130Z" fill="#373D4C"/>
<path d="M122.902 89.527L139.04 78M179 89.527L169.01 78M146.5 117.192C151.879 110.788 158.5 105 163 117.192" stroke="black"/>
<ellipse cx="138.271" cy="93.3693" rx="8.45313" ry="6.91619" fill="#ACB9D4"/>
<ellipse cx="166.705" cy="92.6009" rx="7.68466" ry="6.14773" fill="#ACB9D4"/>
<ellipse cx="141.345" cy="95.6747" rx="2.3054" ry="1.53693" fill="#373D4C"/>
<ellipse cx="169.01" cy="95.6747" rx="2.3054" ry="1.53693" fill="#373D4C"/>
</svg>
